<svg xmlns="http://www.w3.org/2000/svg" viewBox="0 0 120 120" width="120" height="120">
  <defs>
    <linearGradient id="grad" x1="0%" y1="0%" x2="100%" y2="100%">
      <stop offset="0%" style="stop-color:#6366f1"/>
      <stop offset="100%" style="stop-color:#06b6d4"/>
    </linearGradient>
    <linearGradient id="grad2" x1="0%" y1="100%" x2="100%" y2="0%">
      <stop offset="0%" style="stop-color:#6366f1;stop-opacity:0.6"/>
      <stop offset="100%" style="stop-color:#06b6d4;stop-opacity:0.6"/>
    </linearGradient>
  </defs>

  <!-- Connection lines -->
  <line x1="60" y1="35" x2="35" y2="58" stroke="url(#grad2)" stroke-width="2.5" stroke-linecap="round"/>
  <line x1="60" y1="35" x2="85" y2="58" stroke="url(#grad2)" stroke-width="2.5" stroke-linecap="round"/>
  <line x1="35" y1="58" x2="28" y2="85" stroke="url(#grad2)" stroke-width="2.5" stroke-linecap="round"/>
  <line x1="35" y1="58" x2="60" y2="80" stroke="url(#grad2)" stroke-width="2.5" stroke-linecap="round"/>
  <line x1="85" y1="58" x2="92" y2="85" stroke="url(#grad2)" stroke-width="2.5" stroke-linecap="round"/>
  <line x1="85" y1="58" x2="60" y2="80" stroke="url(#grad2)" stroke-width="2.5" stroke-linecap="round"/>
  <line x1="28" y1="85" x2="60" y2="80" stroke="url(#grad2)" stroke-width="2.5" stroke-linecap="round"/>
  <line x1="92" y1="85" x2="60" y2="80" stroke="url(#grad2)" stroke-width="2.5" stroke-linecap="round"/>

  <!-- Outer pulse rings on central node -->
  <circle cx="60" cy="35" r="12" fill="none" stroke="url(#grad)" stroke-width="1" opacity="0.2"/>

  <!-- Nodes -->
  <circle cx="60" cy="35" r="7" fill="url(#grad)"/>
  <circle cx="35" cy="58" r="5.5" fill="url(#grad)"/>
  <circle cx="85" cy="58" r="5.5" fill="url(#grad)"/>
  <circle cx="28" cy="85" r="4" fill="url(#grad)"/>
  <circle cx="60" cy="80" r="6" fill="url(#grad)"/>
  <circle cx="92" cy="85" r="4" fill="url(#grad)"/>

  <!-- Inner highlights -->
  <circle cx="59" cy="33.5" r="2.5" fill="white" opacity="0.3"/>
  <circle cx="34" cy="56.5" r="2" fill="white" opacity="0.25"/>
  <circle cx="84" cy="56.5" r="2" fill="white" opacity="0.25"/>
</svg>
